<?xml version="1.0" standalone="no"?>
<!DOCTYPE svg PUBLIC "-//W3C//DTD SVG 20010904//EN"
 "http://www.w3.org/TR/2001/REC-SVG-20010904/DTD/svg10.dtd">
<svg version="1.0" xmlns="http://www.w3.org/2000/svg"
 width="299.000000pt" height="168.000000pt" viewBox="0 0 299.000000 168.000000"
 preserveAspectRatio="xMidYMid meet">
<metadata>
Created by potrace 1.10, written by Peter Selinger 2001-2011
</metadata>
<g transform="translate(0.000000,168.000000) scale(0.100000,-0.100000)"
fill="#000000" stroke="none">
<path d="M1240 1153 c0 -5 11 -41 25 -81 39 -114 35 -136 -31 -205 -56 -57
-70 -95 -16 -44 29 28 49 36 36 15 -4 -6 5 -3 19 8 15 10 27 25 27 32 0 6 9
12 20 12 16 0 20 7 20 32 l0 31 -25 -23 c-14 -13 -25 -29 -25 -36 0 -7 -10
-18 -21 -25 -20 -10 -19 -8 5 23 14 19 26 40 26 45 0 13 29 27 50 24 12 -1 13
0 1 7 -11 8 -8 26 16 101 l30 91 -28 0 c-26 0 -29 -3 -35 -50 -6 -49 -24 -80
-24 -43 0 10 -5 35 -11 56 -8 30 -15 37 -34 37 -14 0 -25 -3 -25 -7z"/>
<path d="M1425 1140 c-14 -16 -18 -38 -18 -112 0 -51 5 -103 11 -114 22 -42
114 -36 128 8 5 18 7 64 5 165 -1 23 -8 48 -17 57 -22 23 -87 21 -109 -4z m73
-118 c3 -87 2 -92 -18 -92 -19 0 -20 6 -20 88 0 49 3 92 7 96 19 19 28 -8 31
-92z"/>
<path d="M1590 1045 c0 -110 1 -117 25 -141 24 -24 25 -26 8 -49 -10 -13 -21
-25 -25 -25 -5 0 -8 -7 -8 -16 0 -12 3 -14 13 -6 9 8 11 -3 9 -51 -3 -50 -9
-68 -33 -96 -24 -29 -29 -45 -29 -88 0 -30 -5 -53 -10 -53 -14 0 -17 13 -23
82 -4 44 -2 56 8 52 7 -3 25 5 40 18 25 22 26 27 17 63 -6 22 -13 52 -16 68
-11 48 -30 30 -47 -43 -13 -59 -13 -70 -2 -70 8 0 11 -4 8 -10 -10 -16 -23
-12 -30 10 -3 11 -13 20 -21 20 -8 0 -14 9 -14 20 0 11 7 20 15 20 8 0 15 5
15 10 0 6 -7 10 -15 10 -8 0 -15 9 -15 19 0 10 6 18 13 17 6 0 13 4 14 9 1 6
-9 9 -23 8 -27 -2 -29 2 -12 21 7 7 22 10 35 8 13 -2 23 1 23 7 0 18 -61 5
-84 -19 -11 -13 -16 -20 -9 -16 9 5 13 -12 15 -61 3 -66 4 -68 31 -71 28 -3
28 -4 10 -24 -18 -20 -18 -21 2 -10 20 10 21 7 24 -66 1 -42 6 -81 11 -85 4
-5 18 -7 31 -5 22 3 24 8 27 68 3 57 7 68 32 91 18 17 32 23 38 17 6 -6 12 -6
16 1 4 6 25 11 47 11 21 0 39 5 39 10 0 6 -9 10 -20 10 -13 0 -20 7 -20 20 0
13 7 20 20 20 11 0 20 5 20 10 0 6 -9 10 -21 10 -14 0 -19 5 -17 18 2 10 11
16 21 14 25 -4 21 25 -4 31 -20 5 -18 27 2 27 6 0 7 -6 3 -12 -5 -9 -3 -9 9 1
9 7 15 17 12 21 -8 12 -42 0 -61 -21 -9 -10 -28 -19 -42 -19 -24 0 -25 1 -7
20 24 26 95 60 126 59 22 0 23 -1 4 -9 -17 -7 -15 -9 13 -9 17 -1 32 3 32 8 0
11 -25 21 -53 21 -22 0 -22 3 -19 120 l3 120 -28 0 -28 0 0 -112 c0 -106 -1
-113 -20 -113 -19 0 -20 8 -23 113 -3 112 -3 112 -27 112 l-25 0 0 -115z m134
-119 c-3 -7 -21 -20 -40 -30 -20 -9 -33 -12 -30 -7 4 5 -4 12 -16 14 -18 3
-16 5 8 6 17 0 39 10 49 21 19 21 38 18 29 -4z m-34 -105 c-5 -11 -10 -41 -10
-68 0 -37 -4 -51 -20 -61 -19 -12 -20 -10 -20 54 0 38 4 63 9 59 6 -3 15 4 21
15 6 11 15 20 21 20 6 0 6 -7 -1 -19z m-125 -112 c4 -5 -1 -19 -11 -30 -19
-21 -40 -26 -27 -6 4 6 6 20 5 30 -4 19 23 24 33 6z"/>
<path d="M1323 865 c-11 -9 -13 -14 -5 -15 8 0 10 -5 6 -12 -4 -7 4 -3 18 10
23 21 26 22 32 5 4 -9 4 -14 0 -10 -19 19 -34 -19 -34 -84 0 -70 16 -96 23
-36 l3 32 13 -32 c19 -49 27 -40 27 27 -1 42 -6 64 -16 71 -10 7 -11 12 -4 15
6 3 20 11 30 19 16 13 17 14 2 9 -10 -3 -18 -2 -18 3 0 15 -56 13 -77 -2z m44
-37 c-2 -7 3 -18 11 -24 16 -11 10 -44 -7 -44 -9 0 -22 60 -14 73 7 12 15 8
10 -5z"/>
<path d="M1289 844 c-1 -5 -1 -12 0 -16 0 -5 -2 -7 -6 -7 -35 6 -38 -1 -33
-63 5 -57 7 -63 29 -66 30 -5 50 13 33 30 -9 9 -12 9 -12 0 0 -7 -4 -12 -10
-12 -5 0 -10 23 -10 52 0 40 3 49 12 40 28 -28 38 -2 13 32 -8 11 -16 16 -16
10z"/>
<path d="M1352 674 c-22 -15 -32 -74 -12 -74 6 0 10 11 10 23 0 16 9 28 25 35
26 12 33 4 14 -15 -7 -7 -12 -35 -13 -64 -1 -61 -26 -84 -26 -25 0 20 -5 36
-11 36 -6 0 -9 -17 -7 -42 3 -40 5 -43 33 -43 l30 0 3 70 c2 46 8 75 19 87 20
23 11 33 -15 19 -26 -14 -35 -14 -27 -1 9 14 3 13 -23 -6z"/>
<path d="M1250 626 c0 -9 -8 -16 -20 -16 -32 0 -100 -31 -100 -46 0 -10 14
-14 53 -12 l52 1 -50 6 c-43 5 -47 7 -30 17 11 6 37 14 58 18 30 6 37 4 37 -9
0 -19 16 -20 23 -1 3 8 1 17 -6 20 -7 2 0 5 16 5 27 1 40 21 13 21 -8 0 -21 3
-30 6 -11 4 -16 1 -16 -10z"/>
<path d="M1448 633 c-36 -4 -55 -23 -23 -23 12 0 15 -13 15 -55 0 -30 5 -55
10 -55 6 0 10 25 10 55 0 42 3 55 15 55 8 0 15 7 15 15 0 8 -1 14 -2 13 -2 -1
-20 -3 -40 -5z"/>
<path d="M1680 568 l0 -68 30 0 c17 0 30 5 30 10 0 6 -9 10 -20 10 -12 0 -20
7 -20 16 0 9 9 18 20 21 11 3 20 9 20 14 0 5 -9 9 -20 9 -11 0 -20 7 -20 15 0
8 9 15 20 15 11 0 20 6 20 13 0 7 -13 12 -30 12 l-30 0 0 -67z"/>
<path d="M1590 566 c0 -49 4 -66 14 -66 9 0 12 8 8 25 -2 14 0 25 6 25 5 0 13
-11 16 -25 4 -14 13 -25 22 -25 10 0 12 4 7 13 -4 6 -8 35 -8 62 0 49 -1 50
-32 53 l-33 3 0 -65z m48 27 c-5 -25 -28 -28 -28 -4 0 12 6 21 16 21 9 0 14
-7 12 -17z"/>
<path d="M1283 573 c-26 -13 -33 -23 -33 -45 0 -18 5 -28 15 -28 10 0 15 10
15 31 0 23 4 30 14 26 8 -3 16 2 19 14 3 10 4 19 4 18 -1 0 -17 -8 -34 -16z"/>
</g>
</svg>
